<svg width="24" height="24" viewBox="0 0 24 24" fill="none" xmlns="http://www.w3.org/2000/svg">
<path fill-rule="evenodd" clip-rule="evenodd" d="M12 24C15.1826 24 18.2348 22.7357 20.4853 20.4853C22.7357 18.2348 24 15.1826 24 12C24 8.8174 22.7357 5.76516 20.4853 3.51472C18.2348 1.26428 15.1826 0 12 0C8.8174 0 5.76516 1.26428 3.51472 3.51472C1.26428 5.76516 0 8.8174 0 12C0 15.1826 1.26428 18.2348 3.51472 20.4853C5.76516 22.7357 8.8174 24 12 24V24ZM7.5 10.5C7.89782 10.5 8.27936 10.342 8.56066 10.0607C8.84196 9.77936 9 9.39782 9 9C9 8.60218 8.84196 8.22064 8.56066 7.93934C8.27936 7.65804 7.89782 7.5 7.5 7.5C7.10218 7.5 6.72064 7.65804 6.43934 7.93934C6.15804 8.22064 6 8.60218 6 9C6 9.39782 6.15804 9.77936 6.43934 10.0607C6.72064 10.342 7.10218 10.5 7.5 10.5ZM18 9C18 9.39782 17.842 9.77936 17.5607 10.0607C17.2794 10.342 16.8978 10.5 16.5 10.5C16.1022 10.5 15.7206 10.342 15.4393 10.0607C15.158 9.77936 15 9.39782 15 9C15 8.60218 15.158 8.22064 15.4393 7.93934C15.7206 7.65804 16.1022 7.5 16.5 7.5C16.8978 7.5 17.2794 7.65804 17.5607 7.93934C17.842 8.22064 18 8.60218 18 9ZM6.696 17.8185C6.83531 17.958 7.00074 18.0686 7.18284 18.1441C7.36494 18.2196 7.56013 18.2584 7.75725 18.2584C7.95437 18.2584 8.14956 18.2196 8.33166 18.1441C8.51376 18.0686 8.67919 17.958 8.8185 17.8185C9.66237 16.9749 10.8068 16.501 12 16.501C13.1932 16.501 14.3376 16.9749 15.1815 17.8185C15.463 18.1 15.8447 18.2581 16.2427 18.2581C16.6408 18.2581 17.0225 18.1 17.304 17.8185C17.5855 17.537 17.7436 17.1553 17.7436 16.7573C17.7436 16.3592 17.5855 15.9775 17.304 15.696C16.6075 14.9994 15.7807 14.4467 14.8706 14.0697C13.9605 13.6927 12.9851 13.4986 12 13.4986C11.0149 13.4986 10.0395 13.6927 9.12942 14.0697C8.21935 14.4467 7.39247 14.9994 6.696 15.696C6.55654 15.8353 6.4459 16.0007 6.37041 16.1828C6.29492 16.3649 6.25607 16.5601 6.25607 16.7573C6.25607 16.9544 6.29492 17.1496 6.37041 17.3317C6.4459 17.5138 6.55654 17.6792 6.696 17.8185V17.8185Z" fill="#2E70C9"/>
</svg>
