<svg width="6" height="10" viewBox="0 0 6 10" fill="none" xmlns="http://www.w3.org/2000/svg">
<path fill-rule="evenodd" clip-rule="evenodd" d="M5.70719 9.70685C5.89468 9.51908 6 9.26446 6 8.99896C6 8.73347 5.89468 8.47884 5.70719 8.29108L2.41396 4.99396L5.70719 1.69683C5.88936 1.50799 5.99017 1.25508 5.98789 0.992552C5.98561 0.730027 5.88043 0.4789 5.69501 0.29326C5.50959 0.10762 5.25876 0.00231912 4.99654 3.78498e-05C4.73433 -0.00224342 4.48171 0.0986775 4.29309 0.281064L0.292808 4.28607C0.105323 4.47383 4.76837e-07 4.72846 4.76837e-07 4.99396C4.76837e-07 5.25945 0.105323 5.51408 0.292808 5.70184L4.29309 9.70685C4.48063 9.89455 4.73496 10 5.00014 10C5.26533 10 5.51965 9.89455 5.70719 9.70685Z" fill="#9CD8FF"/>
</svg>
