<svg width="63" height="53" viewBox="0 0 63 53" fill="none" xmlns="http://www.w3.org/2000/svg">
<g filter="url(#filter0_d)">
<path d="M24.8005 36.8339H8.69031C8.13727 36.8339 7.63865 36.4828 7.42708 35.9444C7.21551 35.406 7.33246 34.7863 7.72352 34.3742L20.1722 21.2564C20.4287 20.9862 20.7764 20.8344 21.139 20.8344C21.5017 20.8344 21.8494 20.9862 22.1058 21.2564L25.7672 25.1146C26.0236 25.3848 26.1677 25.7513 26.1677 26.1334V35.3931C26.1678 36.1888 25.5556 36.8339 24.8005 36.8339Z" fill="#2E70C9"/>
<path d="M24.8007 27.5742C24.4449 27.5742 24.0951 27.4278 23.8336 27.1521L0.400562 2.45967C0.00950516 2.0476 -0.107538 1.42785 0.104124 0.889466C0.315787 0.35108 0.814407 0 1.36736 0H24.8003C25.5554 0 26.1676 0.645103 26.1676 1.44082V26.1333C26.1676 26.7161 25.8346 27.2415 25.3235 27.4644C25.1545 27.5383 24.9769 27.5742 24.8007 27.5742Z" fill="#9CD8FF"/>
<path d="M40.9109 19.8579C40.5552 19.8579 40.2054 19.7115 39.9439 19.4358L31.1566 10.1762C30.6226 9.61348 30.6226 8.70125 31.1566 8.13857L35.5502 3.50873C35.8066 3.23853 36.1544 3.08667 36.517 3.08667H42.3753C42.8932 3.08667 43.3666 3.39501 43.5982 3.88315L46.5274 10.0563C46.7393 10.503 46.7167 11.0334 46.4676 11.4581C46.2185 11.8829 45.7783 12.1415 45.3045 12.1415H42.2781V18.4171C42.2781 18.9998 41.945 19.5253 41.434 19.7482C41.2648 19.8221 41.0871 19.8579 40.9109 19.8579Z" fill="#9CD8FF"/>
<path d="M24.8002 36.834C24.624 36.834 24.4463 36.798 24.2772 36.7243C23.7663 36.5012 23.4331 35.9758 23.4331 35.3931V18.417C23.4331 17.6213 24.0453 16.9762 24.8004 16.9762H40.9106C41.4636 16.9762 41.9622 17.3273 42.1738 17.8657C42.3854 18.404 42.2685 19.0238 41.8774 19.4359L25.7672 36.4119C25.5057 36.6875 25.1559 36.834 24.8002 36.834Z" fill="#2150A9"/>
<path d="M40.9106 19.8577H23.4331V1.47524C23.4331 0.982095 23.6548 0.508546 24.0464 0.238344C24.601 -0.144337 25.3157 -0.0540457 25.7673 0.422001L41.8506 17.3697C42.2057 17.7439 42.3635 18.2906 42.2288 18.8004C42.0618 19.4326 41.5192 19.8577 40.9106 19.8577Z" fill="#2E70C9"/>
</g>
<defs>
<filter id="filter0_d" x="0" y="0" width="62.6718" height="52.834" filterUnits="userSpaceOnUse" color-interpolation-filters="sRGB">
<feFlood flood-opacity="0" result="BackgroundImageFix"/>
<feColorMatrix in="SourceAlpha" type="matrix" values="0 0 0 0 0 0 0 0 0 0 0 0 0 0 0 0 0 0 127 0"/>
<feOffset dx="8" dy="8"/>
<feGaussianBlur stdDeviation="4"/>
<feColorMatrix type="matrix" values="0 0 0 0 0.466667 0 0 0 0 0.466667 0 0 0 0 0.466667 0 0 0 0.25 0"/>
<feBlend mode="normal" in2="BackgroundImageFix" result="effect1_dropShadow"/>
<feBlend mode="normal" in="SourceGraphic" in2="effect1_dropShadow" result="shape"/>
</filter>
</defs>
</svg>
