<svg width="523" height="573" viewBox="0 0 523 573" fill="none" xmlns="http://www.w3.org/2000/svg">
<rect x="100" y="90" width="322" height="322" fill="#89F0D1"/>
<circle cx="398.5" cy="7.5" r="7.5" transform="rotate(90 398.5 7.5)" fill="#2FAEB6"/>
<circle cx="398.5" cy="35.5" r="7.5" transform="rotate(90 398.5 35.5)" fill="#2FAEB6"/>
<circle cx="398.5" cy="63.5" r="7.5" transform="rotate(90 398.5 63.5)" fill="#2FAEB6"/>
<circle cx="398.5" cy="91.5" r="7.5" transform="rotate(90 398.5 91.5)" fill="#2FAEB6"/>
<circle cx="375.5" cy="7.5" r="7.5" transform="rotate(90 375.5 7.5)" fill="#2FAEB6"/>
<circle cx="375.5" cy="35.5" r="7.5" transform="rotate(90 375.5 35.5)" fill="#2FAEB6"/>
<circle cx="375.5" cy="63.5" r="7.5" transform="rotate(90 375.5 63.5)" fill="#2FAEB6"/>
<circle cx="375.5" cy="91.5" r="7.5" transform="rotate(90 375.5 91.5)" fill="#2FAEB6"/>
<circle cx="352.5" cy="7.5" r="7.5" transform="rotate(90 352.5 7.5)" fill="#2FAEB6"/>
<circle cx="352.5" cy="35.5" r="7.5" transform="rotate(90 352.5 35.5)" fill="#2FAEB6"/>
<circle cx="352.5" cy="63.5" r="7.5" transform="rotate(90 352.5 63.5)" fill="#2FAEB6"/>
<circle cx="352.5" cy="91.5" r="7.5" transform="rotate(90 352.5 91.5)" fill="#2FAEB6"/>
<circle cx="398.5" cy="119.5" r="7.5" transform="rotate(90 398.5 119.5)" fill="#2FAEB6"/>
<circle cx="375.5" cy="119.5" r="7.5" transform="rotate(90 375.5 119.5)" fill="#2FAEB6"/>
<circle cx="352.5" cy="119.5" r="7.5" transform="rotate(90 352.5 119.5)" fill="#2FAEB6"/>
<circle cx="283.5" cy="453.5" r="7.5" transform="rotate(90 283.5 453.5)" fill="#5AA5D8"/>
<circle cx="283.5" cy="481.5" r="7.5" transform="rotate(90 283.5 481.5)" fill="#5AA5D8"/>
<circle cx="283.5" cy="509.5" r="7.5" transform="rotate(90 283.5 509.5)" fill="#5AA5D8"/>
<circle cx="283.5" cy="537.5" r="7.5" transform="rotate(90 283.5 537.5)" fill="#5AA5D8"/>
<circle cx="260.5" cy="453.5" r="7.5" transform="rotate(90 260.5 453.5)" fill="#5AA5D8"/>
<circle cx="260.5" cy="481.5" r="7.5" transform="rotate(90 260.5 481.5)" fill="#5AA5D8"/>
<circle cx="260.5" cy="509.5" r="7.5" transform="rotate(90 260.5 509.5)" fill="#5AA5D8"/>
<circle cx="260.5" cy="537.5" r="7.5" transform="rotate(90 260.5 537.5)" fill="#5AA5D8"/>
<circle cx="237.5" cy="453.5" r="7.5" transform="rotate(90 237.5 453.5)" fill="#5AA5D8"/>
<circle cx="237.5" cy="481.5" r="7.5" transform="rotate(90 237.5 481.5)" fill="#5AA5D8"/>
<circle cx="237.5" cy="509.5" r="7.5" transform="rotate(90 237.5 509.5)" fill="#5AA5D8"/>
<circle cx="237.5" cy="537.5" r="7.5" transform="rotate(90 237.5 537.5)" fill="#5AA5D8"/>
<circle cx="283.5" cy="565.5" r="7.5" transform="rotate(90 283.5 565.5)" fill="#5AA5D8"/>
<circle cx="260.5" cy="565.5" r="7.5" transform="rotate(90 260.5 565.5)" fill="#5AA5D8"/>
<circle cx="237.5" cy="565.5" r="7.5" transform="rotate(90 237.5 565.5)" fill="#5AA5D8"/>
<circle cx="103" cy="92" r="91" fill="#5AA5D8" fill-opacity="0.5"/>
<circle cx="498" cy="187" r="25" fill="#DEF2FF"/>
<rect x="422" y="40" width="50" height="50" fill="#1C73AD"/>
<rect x="473" y="319" width="50" height="50" fill="#1C73AD"/>
<rect x="100" y="362" width="50" height="50" fill="#8EB9D6"/>
<rect y="362" width="50" height="50" fill="#8EB9D6"/>
<rect x="50" y="412" width="50" height="50" fill="#DEF2FF"/>
<rect x="50" y="312" width="50" height="50" fill="#1C73AD"/>
<rect x="381" y="369" width="92" height="92" fill="#1C73AD" fill-opacity="0.5"/>
<path d="M124.4 260.5C123.02 262.54 121.64 264.01 120.26 264.91C118.88 265.81 117.05 266.26 114.77 266.26C112.31 266.26 110.27 265.54 108.65 264.1C107.09 262.66 105.92 260.14 105.14 256.54L103.16 247.54C102.44 244.42 101.75 242.02 101.09 240.34C100.49 238.66 99.56 237.31 98.3 236.29C97.04 235.27 95.27 234.76 92.99 234.76H84.44V255.46C84.44 257.74 84.62 259.39 84.98 260.41C85.34 261.43 86 262.12 86.96 262.48C87.98 262.84 89.57 263.08 91.73 263.2V265C88.97 264.82 85.16 264.73 80.3 264.73C75.14 264.73 71.3 264.82 68.78 265V263.2C70.94 263.08 72.5 262.84 73.46 262.48C74.48 262.12 75.17 261.43 75.53 260.41C75.89 259.39 76.07 257.74 76.07 255.46V210.82C76.07 208.54 75.89 206.89 75.53 205.87C75.17 204.85 74.48 204.16 73.46 203.8C72.5 203.44 70.94 203.2 68.78 203.08V201.28C71.3 201.46 74.96 201.55 79.76 201.55L89.48 201.46C90.62 201.4 91.91 201.37 93.35 201.37C100.31 201.37 105.65 202.84 109.37 205.78C113.15 208.66 115.04 212.41 115.04 217.03C115.04 219.37 114.47 221.74 113.33 224.14C112.25 226.48 110.39 228.61 107.75 230.53C105.17 232.39 101.78 233.65 97.58 234.31L98.66 234.49C102.62 235.15 105.5 236.35 107.3 238.09C109.1 239.83 110.42 242.59 111.26 246.37L113.51 255.55C114.11 258.31 114.74 260.23 115.4 261.31C116.06 262.39 116.96 262.93 118.1 262.93C119.12 262.93 119.96 262.66 120.62 262.12C121.34 261.58 122.15 260.71 123.05 259.51L124.4 260.5ZM91.1 203.08C89.24 203.08 87.83 203.29 86.87 203.71C85.97 204.13 85.34 204.88 84.98 205.96C84.62 207.04 84.44 208.66 84.44 210.82V232.96H90.47C96.41 232.96 100.49 231.64 102.71 229C104.93 226.36 106.04 222.7 106.04 218.02C106.04 213.1 104.87 209.38 102.53 206.86C100.19 204.34 96.38 203.08 91.1 203.08ZM138.029 265.63C134.249 265.63 131.429 264.7 129.569 262.84C127.769 260.92 126.869 258.28 126.869 254.92C126.869 252.22 127.589 250 129.029 248.26C130.529 246.52 132.269 245.14 134.249 244.12C136.289 243.1 138.959 242.02 142.259 240.88C145.619 239.74 148.109 238.69 149.729 237.73C151.349 236.77 152.159 235.48 152.159 233.86V228.28C152.159 224.8 151.409 222.43 149.909 221.17C148.469 219.85 146.429 219.19 143.789 219.19C139.589 219.19 136.619 220.27 134.879 222.43C136.079 222.73 137.069 223.36 137.849 224.32C138.689 225.28 139.109 226.48 139.109 227.92C139.109 229.42 138.629 230.62 137.669 231.52C136.709 232.36 135.479 232.78 133.979 232.78C132.299 232.78 131.039 232.27 130.199 231.25C129.359 230.17 128.939 228.88 128.939 227.38C128.939 225.94 129.269 224.74 129.929 223.78C130.649 222.82 131.699 221.86 133.079 220.9C134.519 219.88 136.349 219.04 138.569 218.38C140.789 217.72 143.219 217.39 145.859 217.39C150.539 217.39 154.079 218.5 156.479 220.72C157.979 222.1 158.969 223.78 159.449 225.76C159.989 227.68 160.259 230.23 160.259 233.41V258.43C160.259 259.93 160.469 261.01 160.889 261.67C161.309 262.33 162.029 262.66 163.049 262.66C163.769 262.66 164.429 262.51 165.029 262.21C165.689 261.85 166.379 261.37 167.099 260.77L168.089 262.3C166.529 263.5 165.179 264.37 164.039 264.91C162.959 265.39 161.579 265.63 159.899 265.63C157.019 265.63 155.009 264.91 153.869 263.47C152.729 262.03 152.159 260.08 152.159 257.62C150.359 260.62 148.289 262.72 145.949 263.92C143.609 265.06 140.969 265.63 138.029 265.63ZM141.989 262.03C145.949 262.03 149.339 259.75 152.159 255.19V237.55C151.619 238.39 150.869 239.08 149.909 239.62C148.949 240.16 147.479 240.88 145.499 241.78C143.219 242.74 141.359 243.67 139.919 244.57C138.539 245.41 137.339 246.58 136.319 248.08C135.299 249.58 134.789 251.5 134.789 253.84C134.789 256.54 135.449 258.58 136.769 259.96C138.089 261.34 139.829 262.03 141.989 262.03ZM181.054 196.15C182.614 196.15 183.964 196.72 185.104 197.86C186.244 199 186.814 200.35 186.814 201.91C186.814 203.47 186.244 204.82 185.104 205.96C183.964 207.1 182.614 207.67 181.054 207.67C179.494 207.67 178.144 207.1 177.004 205.96C175.864 204.82 175.294 203.47 175.294 201.91C175.294 200.35 175.864 199 177.004 197.86C178.144 196.72 179.494 196.15 181.054 196.15ZM185.734 256.63C185.734 259.09 186.244 260.8 187.264 261.76C188.284 262.66 190.054 263.11 192.574 263.11V265C187.054 264.76 183.424 264.64 181.684 264.64C179.944 264.64 176.314 264.76 170.794 265V263.11C173.314 263.11 175.084 262.66 176.104 261.76C177.124 260.8 177.634 259.09 177.634 256.63V228.46C177.634 225.7 177.124 223.69 176.104 222.43C175.084 221.17 173.314 220.54 170.794 220.54V218.65C172.714 218.83 174.574 218.92 176.374 218.92C180.154 218.92 183.274 218.5 185.734 217.66V256.63ZM227.401 217.39C231.601 217.39 234.781 218.53 236.941 220.81C238.081 222.01 238.891 223.51 239.371 225.31C239.851 227.11 240.091 229.54 240.091 232.6V256.63C240.091 259.09 240.601 260.8 241.621 261.76C242.641 262.66 244.411 263.11 246.931 263.11V265C241.411 264.76 237.811 264.64 236.131 264.64C234.451 264.64 231.091 264.76 226.051 265V263.11C228.271 263.11 229.801 262.66 230.641 261.76C231.541 260.8 231.991 259.09 231.991 256.63V230.62C231.991 227.26 231.511 224.71 230.551 222.97C229.591 221.17 227.641 220.27 224.701 220.27C222.241 220.27 220.051 220.99 218.131 222.43C216.211 223.87 214.711 225.85 213.631 228.37C212.611 230.83 212.101 233.59 212.101 236.65V256.63C212.101 259.09 212.521 260.8 213.361 261.76C214.261 262.66 215.821 263.11 218.041 263.11V265C213.001 264.76 209.641 264.64 207.961 264.64C206.281 264.64 202.681 264.76 197.161 265V263.11C199.681 263.11 201.451 262.66 202.471 261.76C203.491 260.8 204.001 259.09 204.001 256.63V228.46C204.001 225.7 203.491 223.69 202.471 222.43C201.451 221.17 199.681 220.54 197.161 220.54V218.65C199.081 218.83 200.941 218.92 202.741 218.92C206.521 218.92 209.641 218.5 212.101 217.66V228.28C213.601 224.44 215.671 221.68 218.311 220C221.011 218.26 224.041 217.39 227.401 217.39ZM304.054 200.02C307.654 200.02 310.714 200.53 313.234 201.55C315.754 202.57 318.214 204.01 320.614 205.87C321.274 206.41 321.844 206.68 322.324 206.68C323.524 206.68 324.304 204.88 324.664 201.28H326.734C326.494 205.18 326.374 212.08 326.374 221.98H324.304C323.644 218.08 323.044 215.29 322.504 213.61C321.964 211.87 321.064 210.22 319.804 208.66C318.004 206.32 315.694 204.58 312.874 203.44C310.114 202.24 307.114 201.64 303.874 201.64C299.974 201.64 296.554 202.93 293.614 205.51C290.734 208.09 288.484 211.78 286.864 216.58C285.244 221.32 284.434 226.9 284.434 233.32C284.434 239.86 285.304 245.47 287.044 250.15C288.784 254.83 291.184 258.4 294.244 260.86C297.364 263.26 300.874 264.46 304.774 264.46C307.774 264.46 310.684 263.89 313.504 262.75C316.324 261.61 318.544 259.9 320.164 257.62C321.364 255.94 322.234 254.14 322.774 252.22C323.314 250.3 323.824 247.36 324.304 243.4H326.374C326.374 253.72 326.494 260.92 326.734 265H324.664C324.484 263.08 324.214 261.73 323.854 260.95C323.554 260.11 323.104 259.69 322.504 259.69C322.024 259.69 321.394 259.93 320.614 260.41C317.914 262.33 315.334 263.8 312.874 264.82C310.414 265.78 307.444 266.26 303.964 266.26C298.264 266.26 293.254 264.97 288.934 262.39C284.674 259.81 281.344 256.09 278.944 251.23C276.604 246.31 275.434 240.46 275.434 233.68C275.434 227.08 276.634 221.23 279.034 216.13C281.494 211.03 284.884 207.07 289.204 204.25C293.584 201.43 298.534 200.02 304.054 200.02ZM349.367 228.19C350.867 224.41 352.937 221.68 355.577 220C358.277 218.26 361.307 217.39 364.667 217.39C368.867 217.39 372.047 218.53 374.207 220.81C375.347 222.01 376.157 223.51 376.637 225.31C377.117 227.11 377.357 229.54 377.357 232.6V256.63C377.357 259.09 377.867 260.8 378.887 261.76C379.907 262.66 381.677 263.11 384.197 263.11V265C378.677 264.76 375.077 264.64 373.397 264.64C371.717 264.64 368.357 264.76 363.317 265V263.11C365.537 263.11 367.067 262.66 367.907 261.76C368.807 260.8 369.257 259.09 369.257 256.63V230.62C369.257 227.26 368.777 224.71 367.817 222.97C366.857 221.17 364.907 220.27 361.967 220.27C359.507 220.27 357.317 220.96 355.397 222.34C353.537 223.72 352.067 225.67 350.987 228.19C349.907 230.65 349.367 233.44 349.367 236.56V256.63C349.367 259.09 349.787 260.8 350.627 261.76C351.527 262.66 353.087 263.11 355.307 263.11V265C350.267 264.76 346.907 264.64 345.227 264.64C343.547 264.64 339.947 264.76 334.427 265V263.11C336.947 263.11 338.717 262.66 339.737 261.76C340.757 260.8 341.267 259.09 341.267 256.63V205.33C341.267 202.57 340.757 200.56 339.737 199.3C338.717 198.04 336.947 197.41 334.427 197.41V195.52C336.347 195.7 338.207 195.79 340.007 195.79C343.787 195.79 346.907 195.37 349.367 194.53V228.19ZM400.207 265.63C396.427 265.63 393.607 264.7 391.747 262.84C389.947 260.92 389.047 258.28 389.047 254.92C389.047 252.22 389.767 250 391.207 248.26C392.707 246.52 394.447 245.14 396.427 244.12C398.467 243.1 401.137 242.02 404.437 240.88C407.797 239.74 410.287 238.69 411.907 237.73C413.527 236.77 414.337 235.48 414.337 233.86V228.28C414.337 224.8 413.587 222.43 412.087 221.17C410.647 219.85 408.607 219.19 405.967 219.19C401.767 219.19 398.797 220.27 397.057 222.43C398.257 222.73 399.247 223.36 400.027 224.32C400.867 225.28 401.287 226.48 401.287 227.92C401.287 229.42 400.807 230.62 399.847 231.52C398.887 232.36 397.657 232.78 396.157 232.78C394.477 232.78 393.217 232.27 392.377 231.25C391.537 230.17 391.117 228.88 391.117 227.38C391.117 225.94 391.447 224.74 392.107 223.78C392.827 222.82 393.877 221.86 395.257 220.9C396.697 219.88 398.527 219.04 400.747 218.38C402.967 217.72 405.397 217.39 408.037 217.39C412.717 217.39 416.257 218.5 418.657 220.72C420.157 222.1 421.147 223.78 421.627 225.76C422.167 227.68 422.437 230.23 422.437 233.41V258.43C422.437 259.93 422.647 261.01 423.067 261.67C423.487 262.33 424.207 262.66 425.227 262.66C425.947 262.66 426.607 262.51 427.207 262.21C427.867 261.85 428.557 261.37 429.277 260.77L430.267 262.3C428.707 263.5 427.357 264.37 426.217 264.91C425.137 265.39 423.757 265.63 422.077 265.63C419.197 265.63 417.187 264.91 416.047 263.47C414.907 262.03 414.337 260.08 414.337 257.62C412.537 260.62 410.467 262.72 408.127 263.92C405.787 265.06 403.147 265.63 400.207 265.63ZM404.167 262.03C408.127 262.03 411.517 259.75 414.337 255.19V237.55C413.797 238.39 413.047 239.08 412.087 239.62C411.127 240.16 409.657 240.88 407.677 241.78C405.397 242.74 403.537 243.67 402.097 244.57C400.717 245.41 399.517 246.58 398.497 248.08C397.477 249.58 396.967 251.5 396.967 253.84C396.967 256.54 397.627 258.58 398.947 259.96C400.267 261.34 402.007 262.03 404.167 262.03ZM443.231 196.15C444.791 196.15 446.141 196.72 447.281 197.86C448.421 199 448.991 200.35 448.991 201.91C448.991 203.47 448.421 204.82 447.281 205.96C446.141 207.1 444.791 207.67 443.231 207.67C441.671 207.67 440.321 207.1 439.181 205.96C438.041 204.82 437.471 203.47 437.471 201.91C437.471 200.35 438.041 199 439.181 197.86C440.321 196.72 441.671 196.15 443.231 196.15ZM447.911 256.63C447.911 259.09 448.421 260.8 449.441 261.76C450.461 262.66 452.231 263.11 454.751 263.11V265C449.231 264.76 445.601 264.64 443.861 264.64C442.121 264.64 438.491 264.76 432.971 265V263.11C435.491 263.11 437.261 262.66 438.281 261.76C439.301 260.8 439.811 259.09 439.811 256.63V228.46C439.811 225.7 439.301 223.69 438.281 222.43C437.261 221.17 435.491 220.54 432.971 220.54V218.65C434.891 218.83 436.751 218.92 438.551 218.92C442.331 218.92 445.451 218.5 447.911 217.66V256.63Z" fill="#181818"/>
<path d="M150.176 297.588H146.304L145.435 300H144.178L147.707 290.758H148.773L152.309 300H151.059L150.176 297.588ZM146.672 296.585H149.814L148.24 292.262L146.672 296.585ZM164.751 297.086L164.929 298.305L165.189 297.207L167.017 290.758H168.045L169.829 297.207L170.083 298.324L170.28 297.08L171.714 290.758H172.939L170.699 300H169.588L167.684 293.265L167.538 292.561L167.392 293.265L165.417 300H164.307L162.072 290.758H163.291L164.751 297.086ZM179.751 300.127C178.82 300.127 178.062 299.822 177.478 299.213C176.894 298.599 176.602 297.78 176.602 296.756V296.541C176.602 295.859 176.731 295.252 176.99 294.719C177.252 294.181 177.616 293.762 178.081 293.462C178.551 293.157 179.059 293.005 179.605 293.005C180.498 293.005 181.192 293.299 181.687 293.887C182.182 294.475 182.429 295.318 182.429 296.414V296.902H177.777C177.794 297.579 177.99 298.127 178.367 298.546C178.748 298.961 179.23 299.168 179.814 299.168C180.229 299.168 180.58 299.084 180.868 298.915C181.156 298.745 181.408 298.521 181.623 298.242L182.341 298.8C181.765 299.685 180.902 300.127 179.751 300.127ZM179.605 293.97C179.131 293.97 178.733 294.143 178.411 294.49C178.09 294.833 177.891 295.315 177.815 295.938H181.255V295.849C181.221 295.252 181.06 294.791 180.773 294.465C180.485 294.135 180.096 293.97 179.605 293.97ZM192.599 296.642C192.599 297.692 192.357 298.536 191.875 299.175C191.393 299.81 190.745 300.127 189.933 300.127C189.065 300.127 188.394 299.82 187.92 299.207L187.863 300H186.784V290.25H187.959V293.887C188.432 293.299 189.086 293.005 189.92 293.005C190.754 293.005 191.407 293.32 191.881 293.951C192.36 294.581 192.599 295.444 192.599 296.541V296.642ZM191.424 296.509C191.424 295.709 191.27 295.091 190.961 294.655C190.652 294.219 190.208 294.001 189.628 294.001C188.854 294.001 188.297 294.361 187.959 295.081V298.051C188.318 298.771 188.879 299.13 189.641 299.13C190.203 299.13 190.641 298.912 190.955 298.477C191.268 298.041 191.424 297.385 191.424 296.509ZM203.866 300V294.04H202.781V293.132H203.866V292.427C203.866 291.691 204.063 291.122 204.457 290.72C204.85 290.318 205.407 290.117 206.126 290.117C206.397 290.117 206.666 290.153 206.932 290.225L206.869 291.177C206.67 291.139 206.458 291.12 206.234 291.12C205.853 291.12 205.559 291.232 205.352 291.456C205.144 291.676 205.041 291.993 205.041 292.408V293.132H206.507V294.04H205.041V300H203.866ZM215.038 299.321C214.581 299.858 213.911 300.127 213.026 300.127C212.294 300.127 211.736 299.915 211.35 299.492C210.97 299.065 210.777 298.434 210.773 297.601V293.132H211.947V297.569C211.947 298.61 212.37 299.13 213.217 299.13C214.114 299.13 214.71 298.796 215.007 298.127V293.132H216.181V300H215.064L215.038 299.321ZM222.237 300H221.063V290.25H222.237V300ZM228.388 300H227.214V290.25H228.388V300ZM243.477 298.178C243.477 297.861 243.356 297.615 243.115 297.442C242.878 297.264 242.461 297.112 241.865 296.985C241.272 296.858 240.8 296.706 240.449 296.528C240.102 296.35 239.844 296.139 239.675 295.893C239.51 295.648 239.427 295.356 239.427 295.017C239.427 294.454 239.664 293.978 240.138 293.589C240.616 293.2 241.226 293.005 241.966 293.005C242.745 293.005 243.375 293.206 243.858 293.608C244.344 294.01 244.588 294.524 244.588 295.15H243.407C243.407 294.829 243.27 294.552 242.994 294.319C242.724 294.086 242.381 293.97 241.966 293.97C241.539 293.97 241.204 294.063 240.963 294.249C240.722 294.435 240.601 294.679 240.601 294.979C240.601 295.263 240.714 295.476 240.938 295.62C241.162 295.764 241.566 295.902 242.15 296.033C242.738 296.164 243.215 296.32 243.578 296.502C243.942 296.684 244.211 296.904 244.385 297.163C244.562 297.417 244.651 297.728 244.651 298.096C244.651 298.709 244.406 299.202 243.915 299.575C243.424 299.943 242.787 300.127 242.004 300.127C241.454 300.127 240.967 300.03 240.544 299.835C240.121 299.64 239.789 299.369 239.548 299.022C239.311 298.671 239.192 298.292 239.192 297.886H240.367C240.388 298.28 240.544 298.593 240.836 298.826C241.133 299.054 241.522 299.168 242.004 299.168C242.449 299.168 242.804 299.08 243.071 298.902C243.341 298.72 243.477 298.479 243.477 298.178ZM250.764 291.469V293.132H252.047V294.04H250.764V298.299C250.764 298.574 250.821 298.781 250.936 298.921C251.05 299.056 251.245 299.124 251.52 299.124C251.655 299.124 251.841 299.099 252.078 299.048V300C251.769 300.085 251.469 300.127 251.177 300.127C250.652 300.127 250.256 299.968 249.99 299.651C249.723 299.333 249.59 298.883 249.59 298.299V294.04H248.339V293.132H249.59V291.469H250.764ZM260.654 300C260.586 299.865 260.531 299.623 260.489 299.276C259.943 299.843 259.292 300.127 258.534 300.127C257.857 300.127 257.301 299.937 256.865 299.556C256.433 299.171 256.217 298.684 256.217 298.096C256.217 297.381 256.488 296.826 257.03 296.433C257.576 296.035 258.342 295.836 259.328 295.836H260.47V295.296C260.47 294.886 260.347 294.56 260.102 294.319C259.856 294.073 259.495 293.951 259.016 293.951C258.598 293.951 258.246 294.056 257.963 294.268C257.679 294.48 257.537 294.736 257.537 295.036H256.357C256.357 294.693 256.477 294.363 256.719 294.046C256.964 293.724 257.294 293.47 257.709 293.284C258.128 293.098 258.587 293.005 259.086 293.005C259.878 293.005 260.498 293.204 260.946 293.602C261.395 293.995 261.627 294.539 261.644 295.233V298.394C261.644 299.025 261.725 299.526 261.886 299.898V300H260.654ZM258.705 299.105C259.074 299.105 259.423 299.01 259.753 298.819C260.083 298.629 260.322 298.381 260.47 298.077V296.667H259.55C258.111 296.667 257.391 297.089 257.391 297.931C257.391 298.299 257.514 298.587 257.76 298.794C258.005 299.001 258.32 299.105 258.705 299.105ZM269.23 299.168C269.649 299.168 270.015 299.042 270.328 298.788C270.641 298.534 270.815 298.216 270.849 297.835H271.96C271.938 298.229 271.803 298.604 271.553 298.959C271.304 299.314 270.969 299.598 270.55 299.81C270.136 300.021 269.696 300.127 269.23 300.127C268.295 300.127 267.55 299.816 266.996 299.194C266.446 298.568 266.171 297.713 266.171 296.629V296.433C266.171 295.764 266.293 295.169 266.539 294.649C266.784 294.128 267.135 293.724 267.592 293.437C268.054 293.149 268.597 293.005 269.224 293.005C269.994 293.005 270.633 293.236 271.141 293.697C271.653 294.158 271.926 294.757 271.96 295.493H270.849C270.815 295.049 270.646 294.685 270.341 294.401C270.041 294.114 269.668 293.97 269.224 293.97C268.627 293.97 268.164 294.186 267.834 294.617C267.508 295.045 267.345 295.665 267.345 296.477V296.699C267.345 297.491 267.508 298.1 267.834 298.527C268.159 298.955 268.625 299.168 269.23 299.168ZM278.187 296.82L277.451 297.588V300H276.276V290.25H277.451V296.147L278.079 295.392L280.218 293.132H281.646L278.974 296.001L281.957 300H280.58L278.187 296.82ZM291.778 296.509C291.778 295.455 292.027 294.609 292.527 293.97C293.026 293.326 293.68 293.005 294.488 293.005C295.292 293.005 295.929 293.28 296.399 293.83V290.25H297.573V300H296.494L296.437 299.264C295.967 299.839 295.313 300.127 294.476 300.127C293.68 300.127 293.03 299.801 292.527 299.149C292.027 298.498 291.778 297.647 291.778 296.598V296.509ZM292.952 296.642C292.952 297.421 293.113 298.03 293.434 298.47C293.756 298.91 294.2 299.13 294.768 299.13C295.512 299.13 296.056 298.796 296.399 298.127V294.973C296.048 294.325 295.508 294.001 294.78 294.001C294.205 294.001 293.756 294.224 293.434 294.668C293.113 295.112 292.952 295.77 292.952 296.642ZM305.241 300.127C304.31 300.127 303.553 299.822 302.969 299.213C302.385 298.599 302.093 297.78 302.093 296.756V296.541C302.093 295.859 302.222 295.252 302.48 294.719C302.743 294.181 303.106 293.762 303.572 293.462C304.042 293.157 304.549 293.005 305.095 293.005C305.988 293.005 306.682 293.299 307.177 293.887C307.673 294.475 307.92 295.318 307.92 296.414V296.902H303.267C303.284 297.579 303.481 298.127 303.858 298.546C304.238 298.961 304.721 299.168 305.305 299.168C305.72 299.168 306.071 299.084 306.359 298.915C306.646 298.745 306.898 298.521 307.114 298.242L307.831 298.8C307.256 299.685 306.392 300.127 305.241 300.127ZM305.095 293.97C304.621 293.97 304.224 294.143 303.902 294.49C303.58 294.833 303.382 295.315 303.305 295.938H306.746V295.849C306.712 295.252 306.551 294.791 306.263 294.465C305.976 294.135 305.586 293.97 305.095 293.97ZM314.452 298.407L316.153 293.132H317.353L314.89 300H313.995L311.507 293.132H312.706L314.452 298.407ZM324.234 300.127C323.303 300.127 322.546 299.822 321.962 299.213C321.378 298.599 321.086 297.78 321.086 296.756V296.541C321.086 295.859 321.215 295.252 321.473 294.719C321.735 294.181 322.099 293.762 322.565 293.462C323.034 293.157 323.542 293.005 324.088 293.005C324.981 293.005 325.675 293.299 326.17 293.887C326.665 294.475 326.913 295.318 326.913 296.414V296.902H322.26C322.277 297.579 322.474 298.127 322.85 298.546C323.231 298.961 323.714 299.168 324.298 299.168C324.712 299.168 325.064 299.084 325.351 298.915C325.639 298.745 325.891 298.521 326.107 298.242L326.824 298.8C326.248 299.685 325.385 300.127 324.234 300.127ZM324.088 293.97C323.614 293.97 323.216 294.143 322.895 294.49C322.573 294.833 322.374 295.315 322.298 295.938H325.738V295.849C325.705 295.252 325.544 294.791 325.256 294.465C324.968 294.135 324.579 293.97 324.088 293.97ZM332.543 300H331.369V290.25H332.543V300ZM337.108 296.502C337.108 295.83 337.239 295.224 337.501 294.687C337.768 294.15 338.136 293.735 338.606 293.443C339.08 293.151 339.619 293.005 340.224 293.005C341.16 293.005 341.915 293.329 342.49 293.976C343.07 294.624 343.36 295.485 343.36 296.56V296.642C343.36 297.311 343.231 297.912 342.973 298.445C342.719 298.974 342.353 299.386 341.875 299.683C341.401 299.979 340.855 300.127 340.237 300.127C339.306 300.127 338.551 299.803 337.971 299.156C337.395 298.508 337.108 297.651 337.108 296.585V296.502ZM338.288 296.642C338.288 297.404 338.464 298.015 338.815 298.477C339.171 298.938 339.645 299.168 340.237 299.168C340.834 299.168 341.308 298.936 341.659 298.47C342.01 298 342.186 297.345 342.186 296.502C342.186 295.749 342.006 295.14 341.646 294.674C341.291 294.205 340.817 293.97 340.224 293.97C339.645 293.97 339.177 294.2 338.822 294.662C338.466 295.123 338.288 295.783 338.288 296.642ZM353.624 296.642C353.624 297.687 353.385 298.529 352.907 299.168C352.429 299.807 351.782 300.127 350.965 300.127C350.131 300.127 349.475 299.862 348.997 299.333V302.641H347.823V293.132H348.895L348.953 293.894C349.431 293.301 350.095 293.005 350.946 293.005C351.771 293.005 352.423 293.316 352.901 293.938C353.383 294.56 353.624 295.425 353.624 296.534V296.642ZM352.45 296.509C352.45 295.734 352.285 295.123 351.955 294.674C351.625 294.226 351.172 294.001 350.597 294.001C349.886 294.001 349.353 294.317 348.997 294.947V298.229C349.348 298.855 349.886 299.168 350.609 299.168C351.172 299.168 351.619 298.946 351.949 298.502C352.283 298.053 352.45 297.389 352.45 296.509ZM360.963 300.127C360.032 300.127 359.274 299.822 358.69 299.213C358.106 298.599 357.814 297.78 357.814 296.756V296.541C357.814 295.859 357.943 295.252 358.201 294.719C358.464 294.181 358.828 293.762 359.293 293.462C359.763 293.157 360.271 293.005 360.817 293.005C361.71 293.005 362.404 293.299 362.899 293.887C363.394 294.475 363.641 295.318 363.641 296.414V296.902H358.989C359.005 297.579 359.202 298.127 359.579 298.546C359.96 298.961 360.442 299.168 361.026 299.168C361.441 299.168 361.792 299.084 362.08 298.915C362.368 298.745 362.619 298.521 362.835 298.242L363.552 298.8C362.977 299.685 362.114 300.127 360.963 300.127ZM360.817 293.97C360.343 293.97 359.945 294.143 359.623 294.49C359.302 294.833 359.103 295.315 359.027 295.938H362.467V295.849C362.433 295.252 362.272 294.791 361.985 294.465C361.697 294.135 361.308 293.97 360.817 293.97ZM371.316 294.186C371.138 294.156 370.946 294.141 370.738 294.141C369.968 294.141 369.445 294.469 369.17 295.125V300H367.996V293.132H369.139L369.158 293.925C369.543 293.312 370.089 293.005 370.795 293.005C371.024 293.005 371.197 293.035 371.316 293.094V294.186ZM374.63 299.384C374.63 299.181 374.689 299.012 374.807 298.876C374.93 298.741 375.112 298.673 375.353 298.673C375.594 298.673 375.776 298.741 375.899 298.876C376.026 299.012 376.09 299.181 376.09 299.384C376.09 299.579 376.026 299.742 375.899 299.873C375.776 300.004 375.594 300.07 375.353 300.07C375.112 300.07 374.93 300.004 374.807 299.873C374.689 299.742 374.63 299.579 374.63 299.384Z" fill="#3E3E3E"/>
</svg>
