<svg width="523" height="573" viewBox="0 0 523 573" fill="none" xmlns="http://www.w3.org/2000/svg">
<rect x="100" y="90" width="322" height="322" fill="#89F0D1"/>
<circle cx="398.5" cy="7.5" r="7.5" transform="rotate(90 398.5 7.5)" fill="#2FAEB6"/>
<circle cx="398.5" cy="35.5" r="7.5" transform="rotate(90 398.5 35.5)" fill="#2FAEB6"/>
<circle cx="398.5" cy="63.5" r="7.5" transform="rotate(90 398.5 63.5)" fill="#2FAEB6"/>
<circle cx="398.5" cy="91.5" r="7.5" transform="rotate(90 398.5 91.5)" fill="#2FAEB6"/>
<circle cx="375.5" cy="7.5" r="7.5" transform="rotate(90 375.5 7.5)" fill="#2FAEB6"/>
<circle cx="375.5" cy="35.5" r="7.5" transform="rotate(90 375.5 35.5)" fill="#2FAEB6"/>
<circle cx="375.5" cy="63.5" r="7.5" transform="rotate(90 375.5 63.5)" fill="#2FAEB6"/>
<circle cx="375.5" cy="91.5" r="7.5" transform="rotate(90 375.5 91.5)" fill="#2FAEB6"/>
<circle cx="352.5" cy="7.5" r="7.5" transform="rotate(90 352.5 7.5)" fill="#2FAEB6"/>
<circle cx="352.5" cy="35.5" r="7.5" transform="rotate(90 352.5 35.5)" fill="#2FAEB6"/>
<circle cx="352.5" cy="63.5" r="7.5" transform="rotate(90 352.5 63.5)" fill="#2FAEB6"/>
<circle cx="352.5" cy="91.5" r="7.5" transform="rotate(90 352.5 91.5)" fill="#2FAEB6"/>
<circle cx="398.5" cy="119.5" r="7.5" transform="rotate(90 398.5 119.5)" fill="#2FAEB6"/>
<circle cx="375.5" cy="119.5" r="7.5" transform="rotate(90 375.5 119.5)" fill="#2FAEB6"/>
<circle cx="352.5" cy="119.5" r="7.5" transform="rotate(90 352.5 119.5)" fill="#2FAEB6"/>
<circle cx="283.5" cy="453.5" r="7.5" transform="rotate(90 283.5 453.5)" fill="#5AA5D8"/>
<circle cx="283.5" cy="481.5" r="7.5" transform="rotate(90 283.5 481.5)" fill="#5AA5D8"/>
<circle cx="283.5" cy="509.5" r="7.5" transform="rotate(90 283.5 509.5)" fill="#5AA5D8"/>
<circle cx="283.5" cy="537.5" r="7.5" transform="rotate(90 283.5 537.5)" fill="#5AA5D8"/>
<circle cx="260.5" cy="453.5" r="7.5" transform="rotate(90 260.5 453.5)" fill="#5AA5D8"/>
<circle cx="260.5" cy="481.5" r="7.5" transform="rotate(90 260.5 481.5)" fill="#5AA5D8"/>
<circle cx="260.5" cy="509.5" r="7.5" transform="rotate(90 260.5 509.5)" fill="#5AA5D8"/>
<circle cx="260.5" cy="537.5" r="7.5" transform="rotate(90 260.5 537.5)" fill="#5AA5D8"/>
<circle cx="237.5" cy="453.5" r="7.5" transform="rotate(90 237.5 453.5)" fill="#5AA5D8"/>
<circle cx="237.5" cy="481.5" r="7.5" transform="rotate(90 237.5 481.5)" fill="#5AA5D8"/>
<circle cx="237.5" cy="509.5" r="7.5" transform="rotate(90 237.5 509.5)" fill="#5AA5D8"/>
<circle cx="237.5" cy="537.5" r="7.5" transform="rotate(90 237.5 537.5)" fill="#5AA5D8"/>
<circle cx="283.5" cy="565.5" r="7.5" transform="rotate(90 283.5 565.5)" fill="#5AA5D8"/>
<circle cx="260.5" cy="565.5" r="7.5" transform="rotate(90 260.5 565.5)" fill="#5AA5D8"/>
<circle cx="237.5" cy="565.5" r="7.5" transform="rotate(90 237.5 565.5)" fill="#5AA5D8"/>
<circle cx="103" cy="92" r="91" fill="#5AA5D8" fill-opacity="0.5"/>
<circle cx="498" cy="187" r="25" fill="#DEF2FF"/>
<rect x="422" y="40" width="50" height="50" fill="#1C73AD"/>
<rect x="473" y="319" width="50" height="50" fill="#1C73AD"/>
<rect x="100" y="362" width="50" height="50" fill="#8EB9D6"/>
<rect y="362" width="50" height="50" fill="#8EB9D6"/>
<rect x="50" y="412" width="50" height="50" fill="#DEF2FF"/>
<rect x="50" y="312" width="50" height="50" fill="#1C73AD"/>
<rect x="381" y="369" width="92" height="92" fill="#1C73AD" fill-opacity="0.5"/>
<path d="M124.4 260.5C123.02 262.54 121.64 264.01 120.26 264.91C118.88 265.81 117.05 266.26 114.77 266.26C112.31 266.26 110.27 265.54 108.65 264.1C107.09 262.66 105.92 260.14 105.14 256.54L103.16 247.54C102.44 244.42 101.75 242.02 101.09 240.34C100.49 238.66 99.56 237.31 98.3 236.29C97.04 235.27 95.27 234.76 92.99 234.76H84.44V255.46C84.44 257.74 84.62 259.39 84.98 260.41C85.34 261.43 86 262.12 86.96 262.48C87.98 262.84 89.57 263.08 91.73 263.2V265C88.97 264.82 85.16 264.73 80.3 264.73C75.14 264.73 71.3 264.82 68.78 265V263.2C70.94 263.08 72.5 262.84 73.46 262.48C74.48 262.12 75.17 261.43 75.53 260.41C75.89 259.39 76.07 257.74 76.07 255.46V210.82C76.07 208.54 75.89 206.89 75.53 205.87C75.17 204.85 74.48 204.16 73.46 203.8C72.5 203.44 70.94 203.2 68.78 203.08V201.28C71.3 201.46 74.96 201.55 79.76 201.55L89.48 201.46C90.62 201.4 91.91 201.37 93.35 201.37C100.31 201.37 105.65 202.84 109.37 205.78C113.15 208.66 115.04 212.41 115.04 217.03C115.04 219.37 114.47 221.74 113.33 224.14C112.25 226.48 110.39 228.61 107.75 230.53C105.17 232.39 101.78 233.65 97.58 234.31L98.66 234.49C102.62 235.15 105.5 236.35 107.3 238.09C109.1 239.83 110.42 242.59 111.26 246.37L113.51 255.55C114.11 258.31 114.74 260.23 115.4 261.31C116.06 262.39 116.96 262.93 118.1 262.93C119.12 262.93 119.96 262.66 120.62 262.12C121.34 261.58 122.15 260.71 123.05 259.51L124.4 260.5ZM91.1 203.08C89.24 203.08 87.83 203.29 86.87 203.71C85.97 204.13 85.34 204.88 84.98 205.96C84.62 207.04 84.44 208.66 84.44 210.82V232.96H90.47C96.41 232.96 100.49 231.64 102.71 229C104.93 226.36 106.04 222.7 106.04 218.02C106.04 213.1 104.87 209.38 102.53 206.86C100.19 204.34 96.38 203.08 91.1 203.08ZM138.029 265.63C134.249 265.63 131.429 264.7 129.569 262.84C127.769 260.92 126.869 258.28 126.869 254.92C126.869 252.22 127.589 250 129.029 248.26C130.529 246.52 132.269 245.14 134.249 244.12C136.289 243.1 138.959 242.02 142.259 240.88C145.619 239.74 148.109 238.69 149.729 237.73C151.349 236.77 152.159 235.48 152.159 233.86V228.28C152.159 224.8 151.409 222.43 149.909 221.17C148.469 219.85 146.429 219.19 143.789 219.19C139.589 219.19 136.619 220.27 134.879 222.43C136.079 222.73 137.069 223.36 137.849 224.32C138.689 225.28 139.109 226.48 139.109 227.92C139.109 229.42 138.629 230.62 137.669 231.52C136.709 232.36 135.479 232.78 133.979 232.78C132.299 232.78 131.039 232.27 130.199 231.25C129.359 230.17 128.939 228.88 128.939 227.38C128.939 225.94 129.269 224.74 129.929 223.78C130.649 222.82 131.699 221.86 133.079 220.9C134.519 219.88 136.349 219.04 138.569 218.38C140.789 217.72 143.219 217.39 145.859 217.39C150.539 217.39 154.079 218.5 156.479 220.72C157.979 222.1 158.969 223.78 159.449 225.76C159.989 227.68 160.259 230.23 160.259 233.41V258.43C160.259 259.93 160.469 261.01 160.889 261.67C161.309 262.33 162.029 262.66 163.049 262.66C163.769 262.66 164.429 262.51 165.029 262.21C165.689 261.85 166.379 261.37 167.099 260.77L168.089 262.3C166.529 263.5 165.179 264.37 164.039 264.91C162.959 265.39 161.579 265.63 159.899 265.63C157.019 265.63 155.009 264.91 153.869 263.47C152.729 262.03 152.159 260.08 152.159 257.62C150.359 260.62 148.289 262.72 145.949 263.92C143.609 265.06 140.969 265.63 138.029 265.63ZM141.989 262.03C145.949 262.03 149.339 259.75 152.159 255.19V237.55C151.619 238.39 150.869 239.08 149.909 239.62C148.949 240.16 147.479 240.88 145.499 241.78C143.219 242.74 141.359 243.67 139.919 244.57C138.539 245.41 137.339 246.58 136.319 248.08C135.299 249.58 134.789 251.5 134.789 253.84C134.789 256.54 135.449 258.58 136.769 259.96C138.089 261.34 139.829 262.03 141.989 262.03ZM181.054 196.15C182.614 196.15 183.964 196.72 185.104 197.86C186.244 199 186.814 200.35 186.814 201.91C186.814 203.47 186.244 204.82 185.104 205.96C183.964 207.1 182.614 207.67 181.054 207.67C179.494 207.67 178.144 207.1 177.004 205.96C175.864 204.82 175.294 203.47 175.294 201.91C175.294 200.35 175.864 199 177.004 197.86C178.144 196.72 179.494 196.15 181.054 196.15ZM185.734 256.63C185.734 259.09 186.244 260.8 187.264 261.76C188.284 262.66 190.054 263.11 192.574 263.11V265C187.054 264.76 183.424 264.64 181.684 264.64C179.944 264.64 176.314 264.76 170.794 265V263.11C173.314 263.11 175.084 262.66 176.104 261.76C177.124 260.8 177.634 259.09 177.634 256.63V228.46C177.634 225.7 177.124 223.69 176.104 222.43C175.084 221.17 173.314 220.54 170.794 220.54V218.65C172.714 218.83 174.574 218.92 176.374 218.92C180.154 218.92 183.274 218.5 185.734 217.66V256.63ZM227.401 217.39C231.601 217.39 234.781 218.53 236.941 220.81C238.081 222.01 238.891 223.51 239.371 225.31C239.851 227.11 240.091 229.54 240.091 232.6V256.63C240.091 259.09 240.601 260.8 241.621 261.76C242.641 262.66 244.411 263.11 246.931 263.11V265C241.411 264.76 237.811 264.64 236.131 264.64C234.451 264.64 231.091 264.76 226.051 265V263.11C228.271 263.11 229.801 262.66 230.641 261.76C231.541 260.8 231.991 259.09 231.991 256.63V230.62C231.991 227.26 231.511 224.71 230.551 222.97C229.591 221.17 227.641 220.27 224.701 220.27C222.241 220.27 220.051 220.99 218.131 222.43C216.211 223.87 214.711 225.85 213.631 228.37C212.611 230.83 212.101 233.59 212.101 236.65V256.63C212.101 259.09 212.521 260.8 213.361 261.76C214.261 262.66 215.821 263.11 218.041 263.11V265C213.001 264.76 209.641 264.64 207.961 264.64C206.281 264.64 202.681 264.76 197.161 265V263.11C199.681 263.11 201.451 262.66 202.471 261.76C203.491 260.8 204.001 259.09 204.001 256.63V228.46C204.001 225.7 203.491 223.69 202.471 222.43C201.451 221.17 199.681 220.54 197.161 220.54V218.65C199.081 218.83 200.941 218.92 202.741 218.92C206.521 218.92 209.641 218.5 212.101 217.66V228.28C213.601 224.44 215.671 221.68 218.311 220C221.011 218.26 224.041 217.39 227.401 217.39ZM304.054 200.02C307.654 200.02 310.714 200.53 313.234 201.55C315.754 202.57 318.214 204.01 320.614 205.87C321.274 206.41 321.844 206.68 322.324 206.68C323.524 206.68 324.304 204.88 324.664 201.28H326.734C326.494 205.18 326.374 212.08 326.374 221.98H324.304C323.644 218.08 323.044 215.29 322.504 213.61C321.964 211.87 321.064 210.22 319.804 208.66C318.004 206.32 315.694 204.58 312.874 203.44C310.114 202.24 307.114 201.64 303.874 201.64C299.974 201.64 296.554 202.93 293.614 205.51C290.734 208.09 288.484 211.78 286.864 216.58C285.244 221.32 284.434 226.9 284.434 233.32C284.434 239.86 285.304 245.47 287.044 250.15C288.784 254.83 291.184 258.4 294.244 260.86C297.364 263.26 300.874 264.46 304.774 264.46C307.774 264.46 310.684 263.89 313.504 262.75C316.324 261.61 318.544 259.9 320.164 257.62C321.364 255.94 322.234 254.14 322.774 252.22C323.314 250.3 323.824 247.36 324.304 243.4H326.374C326.374 253.72 326.494 260.92 326.734 265H324.664C324.484 263.08 324.214 261.73 323.854 260.95C323.554 260.11 323.104 259.69 322.504 259.69C322.024 259.69 321.394 259.93 320.614 260.41C317.914 262.33 315.334 263.8 312.874 264.82C310.414 265.78 307.444 266.26 303.964 266.26C298.264 266.26 293.254 264.97 288.934 262.39C284.674 259.81 281.344 256.09 278.944 251.23C276.604 246.31 275.434 240.46 275.434 233.68C275.434 227.08 276.634 221.23 279.034 216.13C281.494 211.03 284.884 207.07 289.204 204.25C293.584 201.43 298.534 200.02 304.054 200.02ZM349.367 228.19C350.867 224.41 352.937 221.68 355.577 220C358.277 218.26 361.307 217.39 364.667 217.39C368.867 217.39 372.047 218.53 374.207 220.81C375.347 222.01 376.157 223.51 376.637 225.31C377.117 227.11 377.357 229.54 377.357 232.6V256.63C377.357 259.09 377.867 260.8 378.887 261.76C379.907 262.66 381.677 263.11 384.197 263.11V265C378.677 264.76 375.077 264.64 373.397 264.64C371.717 264.64 368.357 264.76 363.317 265V263.11C365.537 263.11 367.067 262.66 367.907 261.76C368.807 260.8 369.257 259.09 369.257 256.63V230.62C369.257 227.26 368.777 224.71 367.817 222.97C366.857 221.17 364.907 220.27 361.967 220.27C359.507 220.27 357.317 220.96 355.397 222.34C353.537 223.72 352.067 225.67 350.987 228.19C349.907 230.65 349.367 233.44 349.367 236.56V256.63C349.367 259.09 349.787 260.8 350.627 261.76C351.527 262.66 353.087 263.11 355.307 263.11V265C350.267 264.76 346.907 264.64 345.227 264.64C343.547 264.64 339.947 264.76 334.427 265V263.11C336.947 263.11 338.717 262.66 339.737 261.76C340.757 260.8 341.267 259.09 341.267 256.63V205.33C341.267 202.57 340.757 200.56 339.737 199.3C338.717 198.04 336.947 197.41 334.427 197.41V195.52C336.347 195.7 338.207 195.79 340.007 195.79C343.787 195.79 346.907 195.37 349.367 194.53V228.19ZM400.207 265.63C396.427 265.63 393.607 264.7 391.747 262.84C389.947 260.92 389.047 258.28 389.047 254.92C389.047 252.22 389.767 250 391.207 248.26C392.707 246.52 394.447 245.14 396.427 244.12C398.467 243.1 401.137 242.02 404.437 240.88C407.797 239.74 410.287 238.69 411.907 237.73C413.527 236.77 414.337 235.48 414.337 233.86V228.28C414.337 224.8 413.587 222.43 412.087 221.17C410.647 219.85 408.607 219.19 405.967 219.19C401.767 219.19 398.797 220.27 397.057 222.43C398.257 222.73 399.247 223.36 400.027 224.32C400.867 225.28 401.287 226.48 401.287 227.92C401.287 229.42 400.807 230.62 399.847 231.52C398.887 232.36 397.657 232.78 396.157 232.78C394.477 232.78 393.217 232.27 392.377 231.25C391.537 230.17 391.117 228.88 391.117 227.38C391.117 225.94 391.447 224.74 392.107 223.78C392.827 222.82 393.877 221.86 395.257 220.9C396.697 219.88 398.527 219.04 400.747 218.38C402.967 217.72 405.397 217.39 408.037 217.39C412.717 217.39 416.257 218.5 418.657 220.72C420.157 222.1 421.147 223.78 421.627 225.76C422.167 227.68 422.437 230.23 422.437 233.41V258.43C422.437 259.93 422.647 261.01 423.067 261.67C423.487 262.33 424.207 262.66 425.227 262.66C425.947 262.66 426.607 262.51 427.207 262.21C427.867 261.85 428.557 261.37 429.277 260.77L430.267 262.3C428.707 263.5 427.357 264.37 426.217 264.91C425.137 265.39 423.757 265.63 422.077 265.63C419.197 265.63 417.187 264.91 416.047 263.47C414.907 262.03 414.337 260.08 414.337 257.62C412.537 260.62 410.467 262.72 408.127 263.92C405.787 265.06 403.147 265.63 400.207 265.63ZM404.167 262.03C408.127 262.03 411.517 259.75 414.337 255.19V237.55C413.797 238.39 413.047 239.08 412.087 239.62C411.127 240.16 409.657 240.88 407.677 241.78C405.397 242.74 403.537 243.67 402.097 244.57C400.717 245.41 399.517 246.58 398.497 248.08C397.477 249.58 396.967 251.5 396.967 253.84C396.967 256.54 397.627 258.58 398.947 259.96C400.267 261.34 402.007 262.03 404.167 262.03ZM443.231 196.15C444.791 196.15 446.141 196.72 447.281 197.86C448.421 199 448.991 200.35 448.991 201.91C448.991 203.47 448.421 204.82 447.281 205.96C446.141 207.1 444.791 207.67 443.231 207.67C441.671 207.67 440.321 207.1 439.181 205.96C438.041 204.82 437.471 203.47 437.471 201.91C437.471 200.35 438.041 199 439.181 197.86C440.321 196.72 441.671 196.15 443.231 196.15ZM447.911 256.63C447.911 259.09 448.421 260.8 449.441 261.76C450.461 262.66 452.231 263.11 454.751 263.11V265C449.231 264.76 445.601 264.64 443.861 264.64C442.121 264.64 438.491 264.76 432.971 265V263.11C435.491 263.11 437.261 262.66 438.281 261.76C439.301 260.8 439.811 259.09 439.811 256.63V228.46C439.811 225.7 439.301 223.69 438.281 222.43C437.261 221.17 435.491 220.54 432.971 220.54V218.65C434.891 218.83 436.751 218.92 438.551 218.92C442.331 218.92 445.451 218.5 447.911 217.66V256.63Z" fill="#1B262C"/>
<path d="M119.245 300.966L119.491 302.653L119.852 301.133L122.383 292.203H123.807L126.276 301.133L126.628 302.68L126.9 300.957L128.887 292.203H130.583L127.48 305H125.942L123.306 295.675L123.104 294.699L122.901 295.675L120.168 305H118.63L115.536 292.203H117.224L119.245 300.966ZM140.014 305.176C138.725 305.176 137.676 304.754 136.868 303.91C136.059 303.061 135.655 301.927 135.655 300.509V300.21C135.655 299.267 135.833 298.426 136.191 297.688C136.554 296.943 137.058 296.363 137.702 295.947C138.353 295.525 139.056 295.314 139.812 295.314C141.048 295.314 142.009 295.722 142.695 296.536C143.38 297.351 143.723 298.517 143.723 300.034V300.711H137.281C137.304 301.648 137.577 302.407 138.098 302.987C138.625 303.562 139.293 303.849 140.102 303.849C140.676 303.849 141.162 303.731 141.561 303.497C141.959 303.263 142.308 302.952 142.607 302.565L143.6 303.339C142.803 304.563 141.608 305.176 140.014 305.176ZM139.812 296.65C139.156 296.65 138.605 296.891 138.16 297.371C137.714 297.846 137.439 298.514 137.333 299.375H142.097V299.252C142.05 298.426 141.827 297.787 141.429 297.336C141.031 296.879 140.492 296.65 139.812 296.65ZM157.803 300.351C157.803 301.804 157.469 302.973 156.801 303.857C156.134 304.736 155.237 305.176 154.112 305.176C152.911 305.176 151.982 304.751 151.326 303.901L151.247 305H149.753V291.5H151.379V296.536C152.035 295.722 152.94 295.314 154.094 295.314C155.249 295.314 156.154 295.751 156.81 296.624C157.472 297.497 157.803 298.692 157.803 300.21V300.351ZM156.177 300.166C156.177 299.059 155.964 298.203 155.536 297.6C155.108 296.996 154.493 296.694 153.69 296.694C152.618 296.694 151.847 297.192 151.379 298.188V302.302C151.877 303.298 152.653 303.796 153.708 303.796C154.487 303.796 155.093 303.494 155.527 302.891C155.961 302.287 156.177 301.379 156.177 300.166ZM173.405 305V296.747H171.902V295.49H173.405V294.515C173.405 293.495 173.677 292.707 174.222 292.15C174.767 291.594 175.538 291.315 176.534 291.315C176.909 291.315 177.281 291.365 177.65 291.465L177.562 292.783C177.287 292.73 176.994 292.704 176.683 292.704C176.156 292.704 175.748 292.859 175.461 293.17C175.174 293.475 175.031 293.914 175.031 294.488V295.49H177.061V296.747H175.031V305H173.405ZM188.874 304.06C188.241 304.804 187.312 305.176 186.088 305.176C185.074 305.176 184.301 304.883 183.767 304.297C183.24 303.705 182.973 302.832 182.968 301.678V295.49H184.594V301.634C184.594 303.075 185.179 303.796 186.351 303.796C187.594 303.796 188.42 303.333 188.83 302.407V295.49H190.456V305H188.909L188.874 304.06ZM198.841 305H197.215V291.5H198.841V305ZM207.358 305H205.732V291.5H207.358V305ZM228.25 302.478C228.25 302.038 228.083 301.698 227.749 301.458C227.421 301.212 226.844 301.001 226.018 300.825C225.198 300.649 224.544 300.438 224.058 300.192C223.577 299.946 223.22 299.653 222.986 299.313C222.757 298.974 222.643 298.569 222.643 298.101C222.643 297.321 222.971 296.662 223.627 296.123C224.289 295.584 225.133 295.314 226.158 295.314C227.237 295.314 228.11 295.593 228.778 296.149C229.451 296.706 229.788 297.418 229.788 298.285H228.154C228.154 297.84 227.963 297.456 227.582 297.134C227.207 296.812 226.733 296.65 226.158 296.65C225.567 296.65 225.104 296.779 224.77 297.037C224.436 297.295 224.269 297.632 224.269 298.048C224.269 298.44 224.424 298.736 224.735 298.936C225.045 299.135 225.605 299.325 226.413 299.507C227.228 299.688 227.887 299.905 228.391 300.157C228.895 300.409 229.267 300.714 229.507 301.071C229.753 301.423 229.876 301.854 229.876 302.363C229.876 303.213 229.536 303.896 228.857 304.411C228.177 304.921 227.295 305.176 226.211 305.176C225.449 305.176 224.776 305.041 224.19 304.771C223.604 304.502 223.144 304.127 222.81 303.646C222.482 303.16 222.318 302.636 222.318 302.073H223.944C223.973 302.618 224.19 303.052 224.594 303.374C225.004 303.69 225.543 303.849 226.211 303.849C226.826 303.849 227.319 303.726 227.688 303.479C228.063 303.228 228.25 302.894 228.25 302.478ZM238.34 293.188V295.49H240.116V296.747H238.34V302.645C238.34 303.025 238.42 303.312 238.578 303.506C238.736 303.693 239.005 303.787 239.386 303.787C239.574 303.787 239.832 303.752 240.16 303.682V305C239.732 305.117 239.316 305.176 238.912 305.176C238.185 305.176 237.637 304.956 237.268 304.517C236.899 304.077 236.714 303.453 236.714 302.645V296.747H234.983V295.49H236.714V293.188H238.34ZM252.034 305C251.94 304.812 251.864 304.479 251.806 303.998C251.05 304.783 250.147 305.176 249.099 305.176C248.161 305.176 247.391 304.912 246.787 304.385C246.189 303.852 245.891 303.178 245.891 302.363C245.891 301.373 246.266 300.605 247.016 300.061C247.771 299.51 248.832 299.234 250.197 299.234H251.779V298.487C251.779 297.919 251.609 297.468 251.269 297.134C250.93 296.794 250.429 296.624 249.767 296.624C249.186 296.624 248.7 296.771 248.308 297.063C247.915 297.356 247.719 297.711 247.719 298.127H246.084C246.084 297.652 246.251 297.195 246.585 296.756C246.925 296.311 247.382 295.959 247.956 295.701C248.536 295.443 249.172 295.314 249.863 295.314C250.959 295.314 251.817 295.59 252.438 296.141C253.06 296.686 253.382 297.438 253.405 298.399V302.776C253.405 303.649 253.517 304.344 253.739 304.859V305H252.034ZM249.336 303.761C249.846 303.761 250.329 303.629 250.786 303.365C251.243 303.102 251.574 302.759 251.779 302.337V300.386H250.505C248.513 300.386 247.517 300.969 247.517 302.135C247.517 302.645 247.686 303.043 248.026 303.33C248.366 303.617 248.803 303.761 249.336 303.761ZM263.909 303.849C264.489 303.849 264.995 303.673 265.429 303.321C265.863 302.97 266.103 302.53 266.15 302.003H267.688C267.659 302.548 267.471 303.066 267.125 303.559C266.78 304.051 266.317 304.443 265.737 304.736C265.162 305.029 264.553 305.176 263.909 305.176C262.614 305.176 261.582 304.745 260.815 303.884C260.053 303.017 259.672 301.833 259.672 300.333V300.061C259.672 299.135 259.842 298.312 260.182 297.591C260.522 296.87 261.008 296.311 261.641 295.912C262.28 295.514 263.033 295.314 263.9 295.314C264.966 295.314 265.851 295.634 266.554 296.272C267.263 296.911 267.641 297.74 267.688 298.76H266.15C266.103 298.145 265.868 297.641 265.447 297.248C265.031 296.85 264.515 296.65 263.9 296.65C263.074 296.65 262.432 296.949 261.975 297.547C261.524 298.139 261.298 298.997 261.298 300.122V300.43C261.298 301.525 261.524 302.369 261.975 302.961C262.426 303.553 263.071 303.849 263.909 303.849ZM276.31 300.597L275.291 301.66V305H273.665V291.5H275.291V299.665L276.161 298.619L279.123 295.49H281.1L277.4 299.463L281.531 305H279.624L276.31 300.597ZM295.128 300.166C295.128 298.707 295.474 297.535 296.165 296.65C296.857 295.76 297.762 295.314 298.881 295.314C299.995 295.314 300.876 295.695 301.527 296.457V291.5H303.153V305H301.659L301.579 303.98C300.929 304.777 300.024 305.176 298.864 305.176C297.762 305.176 296.863 304.725 296.165 303.822C295.474 302.92 295.128 301.742 295.128 300.289V300.166ZM296.754 300.351C296.754 301.429 296.977 302.272 297.422 302.882C297.868 303.491 298.483 303.796 299.268 303.796C300.299 303.796 301.052 303.333 301.527 302.407V298.039C301.04 297.143 300.293 296.694 299.286 296.694C298.489 296.694 297.868 297.002 297.422 297.617C296.977 298.232 296.754 299.144 296.754 300.351ZM313.77 305.176C312.481 305.176 311.432 304.754 310.624 303.91C309.815 303.061 309.411 301.927 309.411 300.509V300.21C309.411 299.267 309.59 298.426 309.947 297.688C310.31 296.943 310.814 296.363 311.459 295.947C312.109 295.525 312.812 295.314 313.568 295.314C314.804 295.314 315.765 295.722 316.451 296.536C317.136 297.351 317.479 298.517 317.479 300.034V300.711H311.037C311.06 301.648 311.333 302.407 311.854 302.987C312.382 303.562 313.05 303.849 313.858 303.849C314.432 303.849 314.919 303.731 315.317 303.497C315.716 303.263 316.064 302.952 316.363 302.565L317.356 303.339C316.559 304.563 315.364 305.176 313.77 305.176ZM313.568 296.65C312.912 296.65 312.361 296.891 311.916 297.371C311.47 297.846 311.195 298.514 311.09 299.375H315.853V299.252C315.806 298.426 315.584 297.787 315.185 297.336C314.787 296.879 314.248 296.65 313.568 296.65ZM326.524 302.794L328.879 295.49H330.54L327.13 305H325.891L322.445 295.49H324.107L326.524 302.794ZM340.068 305.176C338.779 305.176 337.73 304.754 336.921 303.91C336.113 303.061 335.708 301.927 335.708 300.509V300.21C335.708 299.267 335.887 298.426 336.245 297.688C336.608 296.943 337.112 296.363 337.756 295.947C338.407 295.525 339.11 295.314 339.866 295.314C341.102 295.314 342.063 295.722 342.749 296.536C343.434 297.351 343.777 298.517 343.777 300.034V300.711H337.334C337.358 301.648 337.63 302.407 338.152 302.987C338.679 303.562 339.347 303.849 340.156 303.849C340.73 303.849 341.216 303.731 341.615 303.497C342.013 303.263 342.362 302.952 342.661 302.565L343.654 303.339C342.857 304.563 341.662 305.176 340.068 305.176ZM339.866 296.65C339.209 296.65 338.659 296.891 338.213 297.371C337.768 297.846 337.493 298.514 337.387 299.375H342.151V299.252C342.104 298.426 341.881 297.787 341.483 297.336C341.084 296.879 340.545 296.65 339.866 296.65ZM351.573 305H349.947V291.5H351.573V305ZM357.893 300.157C357.893 299.226 358.074 298.388 358.438 297.644C358.807 296.899 359.317 296.325 359.967 295.921C360.623 295.517 361.37 295.314 362.208 295.314C363.503 295.314 364.549 295.763 365.346 296.659C366.149 297.556 366.55 298.748 366.55 300.236V300.351C366.55 301.276 366.371 302.108 366.014 302.847C365.662 303.579 365.155 304.15 364.493 304.561C363.837 304.971 363.081 305.176 362.226 305.176C360.937 305.176 359.891 304.728 359.088 303.831C358.291 302.935 357.893 301.748 357.893 300.271V300.157ZM359.528 300.351C359.528 301.405 359.771 302.252 360.257 302.891C360.749 303.529 361.405 303.849 362.226 303.849C363.052 303.849 363.708 303.526 364.195 302.882C364.681 302.231 364.924 301.323 364.924 300.157C364.924 299.114 364.675 298.271 364.177 297.626C363.685 296.976 363.029 296.65 362.208 296.65C361.405 296.65 360.758 296.97 360.266 297.608C359.774 298.247 359.528 299.161 359.528 300.351ZM380.762 300.351C380.762 301.798 380.431 302.964 379.769 303.849C379.107 304.733 378.211 305.176 377.08 305.176C375.925 305.176 375.017 304.81 374.355 304.077V308.656H372.729V295.49H374.214L374.294 296.545C374.956 295.725 375.876 295.314 377.053 295.314C378.196 295.314 379.098 295.745 379.76 296.606C380.428 297.468 380.762 298.666 380.762 300.201V300.351ZM379.136 300.166C379.136 299.094 378.908 298.247 378.451 297.626C377.994 297.005 377.367 296.694 376.57 296.694C375.586 296.694 374.847 297.131 374.355 298.004V302.548C374.841 303.415 375.586 303.849 376.587 303.849C377.367 303.849 377.985 303.541 378.442 302.926C378.905 302.305 379.136 301.385 379.136 300.166ZM390.923 305.176C389.634 305.176 388.585 304.754 387.776 303.91C386.968 303.061 386.563 301.927 386.563 300.509V300.21C386.563 299.267 386.742 298.426 387.1 297.688C387.463 296.943 387.967 296.363 388.611 295.947C389.262 295.525 389.965 295.314 390.721 295.314C391.957 295.314 392.918 295.722 393.603 296.536C394.289 297.351 394.632 298.517 394.632 300.034V300.711H388.189C388.213 301.648 388.485 302.407 389.007 302.987C389.534 303.562 390.202 303.849 391.011 303.849C391.585 303.849 392.071 303.731 392.47 303.497C392.868 303.263 393.217 302.952 393.516 302.565L394.509 303.339C393.712 304.563 392.517 305.176 390.923 305.176ZM390.721 296.65C390.064 296.65 389.514 296.891 389.068 297.371C388.623 297.846 388.348 298.514 388.242 299.375H393.006V299.252C392.959 298.426 392.736 297.787 392.338 297.336C391.939 296.879 391.4 296.65 390.721 296.65ZM405.258 296.949C405.012 296.908 404.745 296.888 404.458 296.888C403.392 296.888 402.668 297.342 402.287 298.25V305H400.661V295.49H402.243L402.27 296.589C402.803 295.739 403.559 295.314 404.537 295.314C404.854 295.314 405.094 295.355 405.258 295.438V296.949Z" fill="black"/>
</svg>
