<svg width="523" height="573" viewBox="0 0 523 573" fill="none" xmlns="http://www.w3.org/2000/svg">
<rect x="100" y="90" width="322" height="322" fill="#89F0D1"/>
<circle cx="398.5" cy="7.5" r="7.5" transform="rotate(90 398.5 7.5)" fill="#2FAEB6"/>
<circle cx="398.5" cy="35.5" r="7.5" transform="rotate(90 398.5 35.5)" fill="#2FAEB6"/>
<circle cx="398.5" cy="63.5" r="7.5" transform="rotate(90 398.5 63.5)" fill="#2FAEB6"/>
<circle cx="398.5" cy="91.5" r="7.5" transform="rotate(90 398.5 91.5)" fill="#2FAEB6"/>
<circle cx="375.5" cy="7.5" r="7.5" transform="rotate(90 375.5 7.5)" fill="#2FAEB6"/>
<circle cx="375.5" cy="35.5" r="7.5" transform="rotate(90 375.5 35.5)" fill="#2FAEB6"/>
<circle cx="375.5" cy="63.5" r="7.5" transform="rotate(90 375.5 63.5)" fill="#2FAEB6"/>
<circle cx="375.5" cy="91.5" r="7.5" transform="rotate(90 375.5 91.5)" fill="#2FAEB6"/>
<circle cx="352.5" cy="7.5" r="7.5" transform="rotate(90 352.5 7.5)" fill="#2FAEB6"/>
<circle cx="352.5" cy="35.5" r="7.5" transform="rotate(90 352.5 35.5)" fill="#2FAEB6"/>
<circle cx="352.5" cy="63.5" r="7.5" transform="rotate(90 352.5 63.5)" fill="#2FAEB6"/>
<circle cx="352.5" cy="91.5" r="7.5" transform="rotate(90 352.5 91.5)" fill="#2FAEB6"/>
<circle cx="398.5" cy="119.5" r="7.5" transform="rotate(90 398.5 119.5)" fill="#2FAEB6"/>
<circle cx="375.5" cy="119.5" r="7.5" transform="rotate(90 375.5 119.5)" fill="#2FAEB6"/>
<circle cx="352.5" cy="119.5" r="7.5" transform="rotate(90 352.5 119.5)" fill="#2FAEB6"/>
<circle cx="283.5" cy="453.5" r="7.5" transform="rotate(90 283.5 453.5)" fill="#5AA5D8"/>
<circle cx="283.5" cy="481.5" r="7.5" transform="rotate(90 283.5 481.5)" fill="#5AA5D8"/>
<circle cx="283.5" cy="509.5" r="7.5" transform="rotate(90 283.5 509.5)" fill="#5AA5D8"/>
<circle cx="283.5" cy="537.5" r="7.5" transform="rotate(90 283.5 537.5)" fill="#5AA5D8"/>
<circle cx="260.5" cy="453.5" r="7.5" transform="rotate(90 260.5 453.5)" fill="#5AA5D8"/>
<circle cx="260.5" cy="481.5" r="7.5" transform="rotate(90 260.5 481.5)" fill="#5AA5D8"/>
<circle cx="260.5" cy="509.5" r="7.5" transform="rotate(90 260.5 509.5)" fill="#5AA5D8"/>
<circle cx="260.5" cy="537.5" r="7.5" transform="rotate(90 260.5 537.5)" fill="#5AA5D8"/>
<circle cx="237.5" cy="453.5" r="7.5" transform="rotate(90 237.5 453.5)" fill="#5AA5D8"/>
<circle cx="237.5" cy="481.5" r="7.5" transform="rotate(90 237.5 481.5)" fill="#5AA5D8"/>
<circle cx="237.5" cy="509.5" r="7.5" transform="rotate(90 237.5 509.5)" fill="#5AA5D8"/>
<circle cx="237.5" cy="537.5" r="7.5" transform="rotate(90 237.5 537.5)" fill="#5AA5D8"/>
<circle cx="283.5" cy="565.5" r="7.5" transform="rotate(90 283.5 565.5)" fill="#5AA5D8"/>
<circle cx="260.5" cy="565.5" r="7.5" transform="rotate(90 260.5 565.5)" fill="#5AA5D8"/>
<circle cx="237.5" cy="565.5" r="7.5" transform="rotate(90 237.5 565.5)" fill="#5AA5D8"/>
<circle cx="103" cy="92" r="91" fill="#5AA5D8" fill-opacity="0.5"/>
<circle cx="498" cy="187" r="25" fill="#DEF2FF"/>
<rect x="422" y="40" width="50" height="50" fill="#1C73AD"/>
<rect x="473" y="319" width="50" height="50" fill="#1C73AD"/>
<rect x="100" y="362" width="50" height="50" fill="#8EB9D6"/>
<rect y="362" width="50" height="50" fill="#8EB9D6"/>
<rect x="50" y="412" width="50" height="50" fill="#DEF2FF"/>
<rect x="50" y="312" width="50" height="50" fill="#1C73AD"/>
<rect x="381" y="369" width="92" height="92" fill="#1C73AD" fill-opacity="0.5"/>
</svg>
