<svg width="6" height="10" viewBox="0 0 6 10" fill="none" xmlns="http://www.w3.org/2000/svg">
<path fill-rule="evenodd" clip-rule="evenodd" d="M0.292807 9.70685C0.105323 9.51908 0 9.26446 0 8.99896C0 8.73347 0.105323 8.47884 0.292807 8.29108L3.58604 4.99396L0.292807 1.69683C0.110636 1.50799 0.00983442 1.25508 0.012113 0.992552C0.0143916 0.730027 0.119568 0.4789 0.30499 0.29326C0.490411 0.10762 0.741242 0.00231912 1.00346 3.78498e-05C1.26567 -0.00224342 1.51829 0.0986775 1.70691 0.281064L5.70719 4.28607C5.89468 4.47383 6 4.72846 6 4.99396C6 5.25945 5.89468 5.51408 5.70719 5.70184L1.70691 9.70685C1.51937 9.89455 1.26504 10 0.999858 10C0.734675 10 0.480348 9.89455 0.292807 9.70685Z" fill="#9CD8FF"/>
</svg>
