<svg width="24" height="23" viewBox="0 0 24 23" fill="none" xmlns="http://www.w3.org/2000/svg">
<path d="M19.492 8.65013C20.3811 8.65016 21.2491 8.38593 21.9807 7.89259C22.7123 7.39926 23.2727 6.70018 23.5874 5.88834C23.9021 5.07649 23.9562 4.19034 23.7426 3.34773C23.5289 2.50513 23.0575 1.74599 22.3912 1.17128C21.7249 0.59656 20.8951 0.2335 20.0123 0.130376C19.1295 0.0272522 18.2354 0.188951 17.449 0.593969C16.6626 0.998988 16.0211 1.62813 15.6099 2.39774C15.1986 3.16735 15.0371 4.04095 15.1468 4.90237L7.93637 8.42213C7.31784 7.8398 6.53749 7.44802 5.69252 7.29558C4.84756 7.14314 3.97533 7.23679 3.18449 7.56485C2.39365 7.89291 1.71915 8.44089 1.24501 9.14052C0.77088 9.84015 0.518066 10.6605 0.518066 11.4994C0.518066 12.3383 0.77088 13.1587 1.24501 13.8583C1.71915 14.558 2.39365 15.1059 3.18449 15.434C3.97533 15.7621 4.84756 15.8557 5.69252 15.7033C6.53749 15.5508 7.31784 15.159 7.93637 14.5767L15.1468 18.0965C15.019 19.0972 15.2578 20.1097 15.8208 20.9552C16.3838 21.8007 17.2348 22.4246 18.2234 22.7168C19.212 23.0089 20.2746 22.9505 21.2233 22.5517C22.172 22.153 22.9459 21.4396 23.408 20.5378C23.8701 19.6359 23.9908 18.6036 23.7488 17.6232C23.5067 16.6429 22.9175 15.7776 22.0852 15.1804C21.2529 14.5832 20.2312 14.2924 19.2005 14.3595C18.1699 14.4267 17.1968 14.8473 16.4531 15.5472L9.2427 12.0274C9.28688 11.6772 9.28688 11.3231 9.2427 10.9729L16.4531 7.45312C17.2384 8.19413 18.3097 8.65013 19.492 8.65013Z" fill="#0F4C75"/>
</svg>
